<svg width="200" height="25" viewBox="0 0 200 25" fill="none" xmlns="http://www.w3.org/2000/svg">
<path d="M17.9043 24.4246V0.2771H22.131V20.5097H30.5676V24.4246H17.9043Z" fill="black"/>
<path d="M39.5961 13.7888C42.4703 13.5116 43.4847 13.1305 43.4847 11.7794C43.4847 10.7054 42.5379 9.87391 40.6444 9.87391C38.8184 9.87391 37.2968 10.6361 36.0795 12.1605L33.5773 9.97785C35.2342 7.58735 37.5673 6.40942 40.5767 6.40942C44.8035 6.40942 47.4409 8.48812 47.4409 12.0565V19.7824C47.4409 20.9949 47.4409 21.1335 47.4409 21.1335V24.3555V24.7366H44.2963V22.7618C43.1128 24.1823 41.1854 24.9098 38.5141 24.9098C34.7608 24.9098 32.2247 22.7965 32.2247 19.6091C32.2247 16.0407 34.5579 14.2392 39.5961 13.7888ZM39.1227 21.376C41.8279 21.376 43.4847 20.1288 43.4847 17.9115V15.9714C43.3157 16.1793 43.0113 16.3525 42.6394 16.4911C41.8617 16.7682 41.3545 16.8375 39.7314 17.0108C37.3644 17.2879 36.1809 18.0501 36.1809 19.2627C36.1809 20.6138 37.263 21.376 39.1227 21.376Z" fill="black"/>
<path d="M50.1968 24.4246V0.2771H54.2544V9.49264C54.8293 7.79504 56.8919 6.58247 59.6984 6.58247C62.0992 6.58247 64.128 7.44859 65.7511 9.21548C67.408 10.9477 68.2195 13.0957 68.2195 15.6941C68.2195 18.2924 67.408 20.4404 65.7511 22.2073C64.128 23.9396 62.0992 24.8057 59.6984 24.8057C56.8919 24.8057 54.8293 23.5931 54.2544 21.8955V24.4246H50.1968ZM62.7417 19.505C63.7223 18.5003 64.1957 17.2185 64.1957 15.6941C64.1957 14.1697 63.7223 12.8878 62.7417 11.8831C61.7949 10.8784 60.6114 10.3588 59.1574 10.3588C57.7034 10.3588 56.4523 10.8784 55.4379 11.8831C54.4573 12.8878 53.9501 14.1697 53.9501 15.6941C53.9501 17.2185 54.4573 18.5003 55.4379 19.505C56.4523 20.5097 57.7034 21.0294 59.1574 21.0294C60.6114 21.0294 61.7949 20.5097 62.7417 19.505Z" fill="black"/>
<path d="M70.0453 15.6943C70.0453 13.0959 70.9583 10.8786 72.7504 9.11175C74.5425 7.34486 76.7404 6.44409 79.3441 6.44409C81.9478 6.44409 84.1457 7.34486 85.9378 9.11175C87.73 10.8786 88.6429 13.0959 88.6429 15.6943C88.6429 18.2926 87.73 20.5099 85.9378 22.2768C84.1457 24.0437 81.9478 24.9445 79.3441 24.9445C76.7404 24.9445 74.5425 24.0437 72.7504 22.2768C70.9583 20.5099 70.0453 18.2926 70.0453 15.6943ZM83.0975 19.6092C84.1119 18.5352 84.6191 17.2533 84.6191 15.6943C84.6191 14.1353 84.1119 12.8534 83.0975 11.8141C82.083 10.7401 80.8319 10.2204 79.3441 10.2204C77.8225 10.2204 76.5714 10.7401 75.557 11.8141C74.5763 12.8534 74.0691 14.1353 74.0691 15.6943C74.0691 17.2533 74.5763 18.5352 75.557 19.6092C76.5714 20.6485 77.8225 21.1682 79.3441 21.1682C80.8319 21.1682 82.083 20.6485 83.0975 19.6092Z" fill="black"/>
<path d="M90.469 24.4242V6.96315H94.4928V9.56151C95.3044 7.72534 97.1641 6.6167 99.5649 6.6167C100.038 6.6167 100.444 6.65134 100.782 6.72063V10.7394C100.275 10.6355 99.7002 10.5662 99.0915 10.5662C96.285 10.5662 94.4928 12.3678 94.4928 15.2433V24.4242H90.469Z" fill="black"/>
<path d="M118.694 10.7399V6.96356V0.2771H122.752V6.96356H126.505V10.7399H122.752V18.535C122.752 20.4404 123.395 21.1333 124.882 21.1333C125.39 21.1333 125.863 21.0987 126.303 20.9947V24.7017C125.728 24.8403 125.018 24.9096 124.206 24.9096C120.52 24.9096 118.694 22.9349 118.694 18.9853V10.7399Z" fill="black"/>
<path d="M128.247 15.6943C128.247 13.0959 129.16 10.8786 130.952 9.11175C132.744 7.34486 134.942 6.44409 137.546 6.44409C140.149 6.44409 142.347 7.34486 144.139 9.11175C145.932 10.8786 146.845 13.0959 146.845 15.6943C146.845 18.2926 145.932 20.5099 144.139 22.2768C142.347 24.0437 140.149 24.9445 137.546 24.9445C134.942 24.9445 132.744 24.0437 130.952 22.2768C129.16 20.5099 128.247 18.2926 128.247 15.6943ZM141.299 19.6092C142.314 18.5352 142.821 17.2533 142.821 15.6943C142.821 14.1353 142.314 12.8534 141.299 11.8141C140.285 10.7401 139.034 10.2204 137.546 10.2204C136.024 10.2204 134.773 10.7401 133.759 11.8141C132.778 12.8534 132.271 14.1353 132.271 15.6943C132.271 17.2533 132.778 18.5352 133.759 19.6092C134.773 20.6485 136.024 21.1682 137.546 21.1682C139.034 21.1682 140.285 20.6485 141.299 19.6092Z" fill="black"/>
<path d="M148.586 24.4242V6.96315H152.61V9.56151C153.422 7.72534 155.281 6.6167 157.682 6.6167C158.156 6.6167 158.561 6.65134 158.899 6.72063V10.7394C158.392 10.6355 157.826 10.5662 157.209 10.5662C154.402 10.5662 152.61 12.3678 152.61 15.2433V24.4242H148.586Z" fill="black"/>
<path d="M160.658 2.45979C160.658 1.07399 161.74 0 163.093 0C164.412 0 165.494 1.07399 165.494 2.45979C165.494 3.84558 164.412 4.91957 163.093 4.91957C161.74 4.91957 160.658 3.84558 160.658 2.45979ZM161.064 24.4246V6.96362H165.122V24.4246H161.064Z" fill="black"/>
<path d="M108.348 13.7888C111.222 13.5116 112.236 13.1305 112.236 11.7794C112.236 10.7054 111.289 9.87391 109.396 9.87391C107.57 9.87391 106.048 10.6361 104.831 12.1605L102.329 9.97785C103.986 7.58735 106.319 6.40942 109.328 6.40942C113.555 6.40942 116.192 8.48812 116.192 12.0565V19.7824C116.192 20.9949 116.192 21.1335 116.192 21.1335V24.3555V24.7366H113.048V22.7618C111.864 24.1823 109.937 24.9098 107.266 24.9098C103.512 24.9098 100.976 22.7965 100.976 19.6091C100.976 16.0407 103.309 14.2392 108.348 13.7888ZM107.874 21.376C110.579 21.376 112.236 20.1288 112.236 17.9115V15.9714C112.067 16.1793 111.763 16.3525 111.391 16.4911C110.613 16.7682 110.106 16.8375 108.483 17.0108C106.116 17.2879 104.932 18.0501 104.932 19.2627C104.932 20.6138 106.006 21.376 107.874 21.376Z" fill="black"/>
<path d="M174.251 13.7888C177.125 13.5116 178.139 13.1305 178.139 11.7794C178.139 10.7054 177.192 9.87391 175.299 9.87391C173.473 9.87391 171.951 10.6361 170.734 12.1605L168.232 9.97785C169.889 7.58735 172.222 6.40942 175.231 6.40942C179.458 6.40942 182.095 8.48812 182.095 12.0565V19.7824C182.095 20.9949 182.095 21.1335 182.095 21.1335V24.3555V24.7366H178.951V22.7618C177.767 24.1823 175.84 24.9098 173.169 24.9098C169.415 24.9098 166.879 22.7965 166.879 19.6091C166.879 16.0407 169.212 14.2392 174.251 13.7888ZM173.777 21.376C176.482 21.376 178.139 20.1288 178.139 17.9115V15.9714C177.97 16.1793 177.666 16.3525 177.294 16.4911C176.516 16.7682 176.009 16.8375 174.386 17.0108C172.019 17.2879 170.835 18.0501 170.835 19.2627C170.835 20.6138 171.917 21.376 173.777 21.376Z" fill="black"/>
<path d="M4.48877 15.6508L11.2177 8.75646L8.97755 6.45258L0 15.6508L8.97755 24.849L11.2177 22.5451L4.48877 15.6508Z" fill="black"/>
<path d="M195.511 15.6509L188.782 8.75652L191.022 6.45264L200 15.6509L191.022 24.8491L188.782 22.5452L195.511 15.6509Z" fill="black"/>
</svg>
